
<svg width="168px" height="236px" viewBox="0 0 168 236" version="1.1" xmlns="http://www.w3.org/2000/svg" xmlns:xlink="http://www.w3.org/1999/xlink">
    <g id="Page-1" stroke="none" stroke-width="1" fill="none" fill-rule="evenodd">
        <g id="AJS-2019-D1_F" transform="translate(0.924211, 0.868422)" fill="#000000" fill-rule="nonzero">
            <path d="M159.335789,151.771578 L158.255789,151.771578 C150.962456,151.511578 143.685789,151.608244 136.425789,152.061578 C137.055789,149.411578 137.645789,146.741578 138.125789,144.061578 C138.745789,140.851578 139.235789,137.581578 139.625789,134.281578 C140.047861,130.914535 140.264927,127.524954 140.275789,124.131578 C138.048901,126.672675 135.975234,129.344065 134.065789,132.131578 C132.165789,134.858244 130.379122,137.634911 128.705789,140.461578 C126.995789,143.261578 125.425789,146.121578 123.915789,148.991578 C122.405789,151.861578 120.915789,154.781578 119.615789,157.721578 C118.631701,159.86596 118.783861,162.360195 120.021317,164.369052 C121.258774,166.37791 123.41794,167.635829 125.775789,167.721578 L126.835789,167.721578 C133.895789,167.974911 140.942456,167.881578 147.975789,167.441578 C147.775789,168.141578 147.555789,168.831578 147.355789,169.531578 C146.905789,171.051578 146.495789,172.591578 146.115789,174.141578 C145.315789,177.231578 144.635789,180.361578 144.055789,183.551578 C143.444602,186.786792 143.030506,190.056146 142.815789,193.341578 C145.1646,191.033995 147.375113,188.589742 149.435789,186.021578 C151.475789,183.501578 153.405789,180.934911 155.225789,178.321578 C156.159122,177.021578 157.055789,175.708244 157.915789,174.381578 C158.795789,173.061578 159.655789,171.721578 160.485789,170.381578 C162.159122,167.714911 163.752456,164.994911 165.265789,162.221578 C165.794869,161.249136 166.092582,160.167788 166.135789,159.061578 C166.214131,157.189565 165.538723,155.364283 164.260698,153.994166 C162.982674,152.624048 161.208722,151.823472 159.335789,151.771578 Z" id="Path"></path>
            <path d="M148.695789,116.601578 L134.115789,55.6015777 L126.675789,25.1315777 L124.805789,17.5115777 L123.415789,11.8015777 C123.235789,11.1415777 123.155789,10.6015777 122.865789,9.80157769 C121.928513,6.62800101 119.871097,3.90254606 117.075789,2.13157769 C114.274826,0.390207244 110.953251,-0.317263371 107.685789,0.131577687 C106.872415,0.250687131 106.069861,0.43460587 105.285789,0.681577687 C104.507353,0.963129382 103.748941,1.2972317 103.015789,1.68157769 C101.559409,2.48747976 100.264363,3.55538376 99.1957891,4.83157769 L98.4257891,5.83157769 C98.194879,6.15332964 97.981244,6.48713438 97.7857891,6.83157769 L97.1857891,7.90157769 L96.7557891,8.79157769 L95.2957891,11.8915777 C89.3657891,29.0915777 82.6357891,45.8915777 75.6557891,62.6415777 C68.3224558,80.1482444 60.6324558,97.4982444 52.5857891,114.691578 C44.5391225,131.884911 36.2057891,148.931578 27.5857891,165.831578 C19.8357891,180.831578 11.8557891,195.751578 3.21578914,210.351578 L2.69578914,211.481578 L1.88578914,213.261578 L1.47578914,214.161578 L1.27578914,214.611578 L1.05578914,215.191578 C0.734960667,215.944378 0.493651097,216.728634 0.335789137,217.531578 L0.0757891371,218.761578 C0.0222937091,219.176007 5.68434189e-14,219.593767 0.00578913711,220.011578 C-0.0913486449,223.337403 1.0367841,226.583009 3.17578914,229.131578 C5.29232276,231.664085 8.21612048,233.390821 11.4557891,234.021578 C12.2713595,234.131608 13.0928891,234.19172 13.9157891,234.201578 L15.1457891,234.131578 L15.7657891,234.071578 L16.3557891,233.941578 C17.1577396,233.798719 17.942173,233.570764 18.6957891,233.261578 L19.8057891,232.791578 C20.2057891,232.631578 20.4157891,232.491578 20.7357891,232.341578 L34.7357891,225.201578 L62.6657891,210.921578 L118.325789,182.131578 C118.935839,181.804856 119.266698,181.122965 119.145789,180.441578 C118.984164,179.592016 118.165949,179.033125 117.315789,179.191578 L116.885789,179.271578 C106.185789,181.271578 95.7857891,183.841578 85.4757891,186.611578 C75.1657891,189.381578 64.9857891,192.401578 54.8657891,195.541578 C49.8657891,197.101578 44.9457891,198.771578 39.9857891,200.381578 C43.3457891,194.141578 46.6257891,187.871578 49.9857891,181.611578 C52.4757891,177.001578 54.7857891,172.311578 57.1357891,167.611578 L64.1357891,153.611578 C66.4757891,148.931578 68.6957891,144.201578 70.9857891,139.501578 L77.6757891,125.321578 L84.2057891,111.061578 L90.5757891,96.7315777 L96.7357891,82.3015777 C98.7357891,77.4815777 100.905789,72.7115777 102.815789,67.8315777 C105.705789,60.5915777 108.685789,53.3915777 111.515789,46.1215777 C113.445789,50.7015777 115.335789,55.2915777 117.305789,59.8615777 C119.465789,64.7115777 121.545789,69.5815777 123.775789,74.4115777 C126.005789,79.2415777 128.205789,84.0715777 130.585789,88.8615777 C135.235789,98.4715777 140.095789,108.021578 145.585789,117.421578 L145.805789,117.801578 C146.199149,118.476868 147.029285,118.760031 147.753323,118.465891 C148.47736,118.171751 148.874824,117.389875 148.685789,116.631578 L148.695789,116.601578 Z" id="Path"></path>
        </g>
    </g>
</svg>